<svg width="300" height="300">
  <circle r="140" cx="150" cy="150" fill="beige" stroke-width="10px" stroke="saddlebrown" />
  <rect class="twelve clock" x="145" y="20" width="10" height="40" />
  <rect class="one clock" x="145" y="20" width="10" height="20" />
  <rect class="two clock" x="145" y="20" width="10" height="20" />
  <rect class="three clock" x="145" y="20" width="10" height="40" />
  <rect class="four clock" x="145" y="20" width="10" height="20" />
  <rect class="five clock" x="145" y="20" width="10" height="20" />
  <rect class="six clock" x="145" y="20" width="10" height="40" />
  <rect class="seven clock" x="145" y="20" width="10" height="20" />
  <rect class="eight clock" x="145" y="20" width="10" height="20" />
  <rect class="nine clock" x="145" y="20" width="10" height="40" />
  <rect class="ten clock" x="145" y="20" width="10" height="20" />
  <rect class="eleven clock" x="145" y="20" width="10" height="20" />
  <rect class="clock minute" x="145" y="20" width="10" height="150" fill="green">
    <animateTransform attributeName="transform" attributeType="XML" type="rotate"
                      from="0 0 0" to="360 0 0" dur="6s" repeatCount="indefinite"/>
  </rect>
  <rect class="clock hour" x="145" y="75" width="10" height="95" fill="blue">
    <animateTransform attributeName="transform" attributeType="XML" type="rotate"
                      from="0 0 0" to="360 0 0" dur="36s" repeatCount="indefinite"/>
  </rect>
  <rect class="clock second" x="148" y="18" width="4" height="152" fill="red">
    <animateTransform attributeName="transform" attributeType="XML" type="rotate"
                      from="0 0 0" to="360 0 0" dur="1s" repeatCount="indefinite"/>
  </rect>
</svg>
